<svg width="512" height="512" viewBox="0 0 512 512" fill="none" xmlns="http://www.w3.org/2000/svg">
<g clip-path="url(#clip0_34_3629)">
<path d="M256 42.6666C138.24 42.6666 42.6666 138.24 42.6666 256C42.6666 373.76 138.24 469.333 256 469.333C373.76 469.333 469.333 373.76 469.333 256C469.333 138.24 373.76 42.6666 256 42.6666ZM256 106.667C291.413 106.667 320 135.253 320 170.667C320 206.08 291.413 234.667 256 234.667C220.587 234.667 192 206.08 192 170.667C192 135.253 220.587 106.667 256 106.667ZM256 409.6C202.667 409.6 155.52 382.293 128 340.907C128.64 298.453 213.333 275.2 256 275.2C298.453 275.2 383.36 298.453 384 340.907C356.48 382.293 309.333 409.6 256 409.6Z" fill="#EF8A17"/>
</g>
<defs>
<clipPath id="clip0_34_3629">
<rect width="512" height="512" fill="white"/>
</clipPath>
</defs>
</svg>
