<?xml version="1.0" encoding="utf-8"?>
<!-- Generator: Adobe Illustrator 26.0.1, SVG Export Plug-In . SVG Version: 6.00 Build 0)  -->
<svg version="1.1" id="Layer_1" xmlns="http://www.w3.org/2000/svg" xmlns:xlink="http://www.w3.org/1999/xlink" x="0px" y="0px"
	 viewBox="0 0 1080 461.65" style="enable-background:new 0 0 1080 461.65;" xml:space="preserve">
<style type="text/css">
	.st0{fill:#fff;}
</style>
<g>
	<path class="st0" d="M63.41,395.83c-2.41-0.86-4.15-1.82-5.22-2.88l3.25-5.83c0.86,0.78,2.2,1.59,4.02,2.42
		c1.82,0.84,3.57,1.26,5.25,1.26c2.17,0,3.94-0.51,5.31-1.53c1.37-1.02,2.06-2.43,2.06-4.24c0-1.39-0.37-2.6-1.1-3.62
		c-0.74-1.02-1.64-1.87-2.7-2.55c-1.06-0.68-2.58-1.5-4.54-2.49c-2.33-1.14-3.93-2-4.79-2.58c-3.97-2.66-5.95-6.34-5.95-11.05
		c0-3.89,1.29-6.86,3.87-8.93c2.58-2.07,5.83-3.1,9.76-3.1c4.21,0,7.79,1.21,10.74,3.62l-3.25,5.59c-0.78-0.82-1.87-1.52-3.28-2.12
		c-1.41-0.59-2.92-0.89-4.51-0.89c-2.05,0-3.65,0.46-4.82,1.38c-1.17,0.92-1.75,2.28-1.75,4.08c0,1.27,0.37,2.4,1.1,3.41
		c0.74,1,1.67,1.87,2.79,2.61c1.12,0.74,2.65,1.64,4.57,2.7c1.84,1.02,3.25,1.83,4.24,2.42c0.98,0.59,1.9,1.3,2.76,2.12
		c1.19,1.06,2.15,2.33,2.88,3.81c0.74,1.47,1.1,3.09,1.1,4.85c0,2.74-0.62,5.07-1.87,7c-1.25,1.92-2.97,3.38-5.16,4.36
		c-2.19,0.98-4.68,1.47-7.46,1.47C68.26,397.12,65.83,396.69,63.41,395.83z"/>
	<path class="st0" d="M137.99,351.39h9.94c5.61,0,9.71,1.2,12.31,3.59c2.6,2.39,3.9,5.68,3.9,9.85c0,4.83-1.41,8.53-4.23,11.11
		c-2.82,2.58-7.02,3.87-12.58,3.87h-2.39v16.69h-6.94V351.39z M147.5,373.74c3.6,0,6.12-0.8,7.55-2.39c1.43-1.6,2.15-3.52,2.15-5.77
		c0-2.41-0.7-4.38-2.09-5.89c-1.39-1.51-3.72-2.27-7-2.27h-3.19v16.33H147.5z"/>
	<path class="st0" d="M215.87,351.39h19.76v6.01h-12.95v12.46h10.43v6.14h-10.43v14.42h14.98v6.08h-21.79V351.39z"/>
	<path class="st0" d="M289.95,351.39h19.76v6.01h-12.95v12.46h10.43v6.14h-10.43v14.42h14.98v6.08h-21.79V351.39z"/>
	<path class="st0" d="M372.47,393.81c-3.42-2.09-6.03-4.88-7.83-8.38c-1.8-3.5-2.7-7.35-2.7-11.57c0-4.46,0.97-8.45,2.92-11.97
		c1.94-3.52,4.67-6.27,8.19-8.25c3.52-1.98,7.51-2.98,11.97-2.98c2,0,3.88,0.21,5.62,0.64c1.74,0.43,3.18,0.92,4.33,1.47
		c1.15,0.55,1.9,1.01,2.27,1.38l-3.01,6.14c-2.5-2.21-5.75-3.31-9.76-3.31c-2.82,0-5.38,0.7-7.67,2.09
		c-2.29,1.39-4.09,3.38-5.4,5.95c-1.31,2.58-1.96,5.57-1.96,8.96c0,3.11,0.58,5.93,1.75,8.47c1.17,2.54,2.87,4.54,5.12,6.02
		c2.25,1.47,4.93,2.21,8.04,2.21c3.6,0,7.08-1.02,10.43-3.07l2.03,5.83c-0.9,0.82-2.55,1.61-4.94,2.36s-4.82,1.14-7.27,1.14
		C379.93,396.94,375.89,395.89,372.47,393.81z"/>
	<path class="st0" d="M449.29,351.39h6.87v18.41h15.9v-18.41h6.87v45.11h-6.87v-20.93h-15.9v20.93h-6.87V351.39z"/>
	<path class="st0" d="M541.9,395.95c-2.13-0.98-3.86-2.46-5.19-4.45c-1.33-1.98-2-4.43-2-7.33c0-2.54,0.73-4.78,2.18-6.72
		c1.45-1.94,3.57-3.9,6.35-5.86c-1.8-2.33-3.07-4.25-3.81-5.77c-0.74-1.51-1.1-3.21-1.1-5.09c0-2.09,0.49-3.93,1.47-5.52
		c0.98-1.6,2.31-2.82,3.99-3.68c1.68-0.86,3.56-1.29,5.65-1.29c2.17,0,4.04,0.44,5.62,1.32c1.57,0.88,2.78,2.06,3.62,3.53
		c0.84,1.47,1.26,3.07,1.26,4.79c0,2.46-0.59,4.69-1.78,6.69c-1.19,2.01-3.29,4.28-6.32,6.81c2.09,2.74,4.95,6.4,8.59,10.99
		c2.41-2.13,4.34-4.38,5.77-6.75l5.09,4.17c-0.82,1.15-1.84,2.38-3.07,3.71s-2.56,2.57-3.99,3.71c2.04,2.62,4.01,5.05,5.89,7.3
		h-7.37l-2.52-3.07c-3.56,2.66-7.39,3.99-11.48,3.99C546.32,397.43,544.03,396.94,541.9,395.95z M552.49,390.83
		c1.12-0.35,2.38-1.13,3.77-2.36l-5.89-7.37l-3.38-4.24c-1.84,1.35-3.12,2.59-3.84,3.71c-0.72,1.12-1.07,2.4-1.07,3.84
		c0,2.05,0.61,3.71,1.84,5s3.01,1.93,5.34,1.93C550.29,391.35,551.36,391.18,552.49,390.83z M552.46,364.16
		c0.82-1.19,1.23-2.56,1.23-4.11c0-1.31-0.4-2.35-1.2-3.13c-0.8-0.78-1.89-1.17-3.28-1.17c-1.27,0-2.38,0.43-3.35,1.29
		c-0.96,0.86-1.44,2.09-1.44,3.68c0,1.02,0.32,2.14,0.95,3.34c0.63,1.21,1.59,2.63,2.85,4.27
		C550.23,366.74,551.64,365.35,552.46,364.16z"/>
	<path class="st0" d="M625.25,351.39h10.86c9.08,0,15.44,2.15,19.06,6.44c3.62,4.3,5.43,9.41,5.43,15.34
		c0,4.13-0.78,7.95-2.33,11.45c-1.56,3.5-4.12,6.35-7.7,8.56c-3.58,2.21-8.28,3.31-14.09,3.31h-11.23V351.39z M637.22,390.43
		c5.65,0,9.75-1.61,12.31-4.82c2.56-3.21,3.84-7.25,3.84-12.12c0-4.75-1.29-8.61-3.87-11.6c-2.58-2.99-6.67-4.48-12.28-4.48h-5.09
		v33.02H637.22z"/>
	<path class="st0" d="M735.42,396.51l-9.08-17.06c-1.88,0.08-3.56,0.12-5.03,0.12h-1.72v16.94h-6.69v-45.11h10.25
		c5.2,0,9.47,1.07,12.83,3.22c3.35,2.15,5.03,5.64,5.03,10.46c0,3.03-0.71,5.64-2.12,7.83c-1.41,2.19-3.51,3.88-6.29,5.06
		l10.74,18.54H735.42z M723.94,373.98c4.01,0,6.76-0.87,8.25-2.61c1.49-1.74,2.24-3.81,2.24-6.23c0-5.36-3.58-8.04-10.74-8.04h-4.11
		v16.88H723.94z"/>
	<path class="st0" d="M812.26,351.33l21.73,45.17h-7.92l-3.87-8.84h-20.68l-3.87,8.84h-7.67l21.6-45.17H812.26z M809.19,370.54
		l-4.91,10.92h15.22l-4.85-10.86l-2.64-6.2h-0.12L809.19,370.54z"/>
	<path class="st0" d="M894.82,375.45l-2.82-6.38l-1.29,6.38l-4.17,21.05h-6.81l9.33-45.11h0.74l12.4,24.37l3.68,8.16l3.68-8.16
		l12.15-24.37h0.67l9.7,45.11h-6.75l-4.54-21.05l-1.35-6.38l-2.46,6.38l-10.92,21.05h-0.37L894.82,375.45z"/>
	<path class="st0" d="M1000.08,351.33l21.73,45.17h-7.92l-3.87-8.84h-20.68l-3.87,8.84h-7.67l21.6-45.17H1000.08z M997.01,370.54
		l-4.91,10.92h15.22l-4.85-10.86l-2.64-6.2h-0.12L997.01,370.54z"/>
</g>
<g>
	<path class="st0" d="M753.82,165.1c-4.32-1.55-8.84-2.48-13.49-2.49c-14.94-0.08-29.29,3.02-43.19,8.3
		c-5.36,2.04-10.58,4.43-15.59,7.22c-1.46,0.83-3.13,1.16-4.56-0.22c-1.26-1.22-0.92-2.66-0.4-4.12c1.44-4,2.77-8.05,4.28-12.03
		c10.13-26.55,26.87-49.02,44.06-71.2c10.47-13.51,22.01-26.08,34.05-38.21c3.71-3.74,3.86-8.35,0.82-11.35
		c-2.81-2.75-7.18-2.2-10.75,1.61c-7.3,7.78-14.86,15.34-21.67,23.55c-26.61,32.1-52.85,64.5-64.3,105.85
		c-0.28,0.99-0.51,2.2-2.25,1.9c-3.37-0.59-5.36,1.75-7.52,3.79c-17.74,16.85-36.92,31.61-60.41,39.54
		c-30.16,10.17-53.86,4.29-71.03-24.18c-1.84-3.07-4.33-5.76-6.51-8.61c-6.14-8.06-14.42-9.67-23.76-7.8
		c-4.18,0.84-8.18,2.27-12.01,4.21c-10.06,5.08-18.61,12.21-26.95,19.64c-1.05,0.94-2,2.45-3.75,1.58c-1.98-0.99-0.79-2.54-0.5-3.87
		c1.58-7.2,3.21-14.4,4.81-21.59c1.29-5.82-0.26-9.3-4.58-10.26c-4.32-0.97-7.59,1.59-8.82,7.03c-4.02,17.73-7.93,35.48-12.09,53.18
		c-0.97,4.15-0.8,7.6,3.29,9.65c4.15,2.07,7.13-0.05,9.79-3.21c7.18-8.56,14.8-16.73,23.13-24.17c8.21-7.35,16.83-14.16,27.4-17.93
		c8.07-2.88,11.51-1.83,16.37,5.19c2.71,3.9,4.98,8.11,7.81,11.92c15.27,20.51,35.47,29.7,61.14,26.89
		c13.43-1.48,25.75-5.94,37.68-11.95c16.24-8.17,30.5-19.11,44.12-30.99c1.28,3.28-0.2,6.78,0.84,10.09
		c1.28,9.15,5.1,16.89,12.71,22.46c5.94,4.35,12.64,6.53,19.9,7.76c27.71,4.69,60.57-11.33,73.65-36.17
		C772.48,182.9,767.69,170.06,753.82,165.1z M752.62,190.9c-3.49,5.78-7.85,10.92-13.17,15.11c-10.88,8.57-23.21,13.22-37.17,13.24
		c-6.08,0.01-12.12-0.37-17.82-2.71c-4.19-1.73-7.76-4.23-9.56-8.64c-1.9-4.62-0.95-8.42,3.04-11.2
		c17.87-12.45,37.64-19.45,59.47-20.43c3.29-0.16,6.53,0.13,9.72,1.01C754.79,179.39,756.76,184.02,752.62,190.9z"/>
	<path class="st0" d="M331.39,167c12.11,0.45,23.2,0.87,34.3,1.28c19.64,0.73,22.11-1.13,26.58-20
		c8.6-36.34,17.19-72.69,25.78-109.03c0.11-0.48,0.18-0.97,0.31-1.44c1.22-4.29,4.55-6.81,8.15-6.16c3.76,0.67,6.2,4.6,5.22,9.17
		c-1.61,7.53-3.51,14.99-5.28,22.48c-7.77,32.84-15.56,65.67-23.3,98.51c-1.56,6.64-0.81,7.51,5.82,7.73
		c1.63,0.05,3.29,0.16,4.87,0.53c3.51,0.83,5.33,3.22,5.17,6.78c-0.16,3.6-2.42,5.57-5.81,6.33c-0.32,0.07-0.65,0.07-0.98,0.1
		c-13.77,1.32-14.65,2.12-17.82,15.48c-2.8,11.79-5.64,23.58-8.57,35.34c-1.38,5.56-4.22,7.62-8.47,6.48
		c-4.34-1.16-5.96-4.31-4.73-9.65c2.96-12.77,6.04-25.5,8.98-38.27c1.58-6.9-1.09-10.12-8.25-10.39
		c-17.72-0.65-35.43-1.35-53.15-1.98c-3.42-0.12-6.7-0.5-8.29-4.06c-1.54-3.46,0.08-6.25,2.12-9.04
		c15.09-20.65,30.77-40.88,44.72-62.35c13.54-20.84,25.25-42.53,30.75-67.07c1-4.47,4.91-7.02,8.62-6.09
		c3.68,0.92,5.46,4.76,4.42,9.54c-5.92,27.02-18.49,51.03-33.9,73.63c-11.18,16.39-23.02,32.32-34.57,48.45
		C333.42,164.2,332.75,165.11,331.39,167z"/>
</g>
</svg>
