<svg width="345" height="131" viewBox="0 0 345 131" fill="none" xmlns="http://www.w3.org/2000/svg">
<g clip-path="url(#clip0_943_767)">
<path d="M1.92909 130.674C1.03846 130.357 0.395427 130.002 0 129.61L1.20106 127.456C1.51888 127.744 2.01409 128.043 2.68669 128.35C3.35928 128.66 4.00601 128.816 4.62687 128.816C5.42881 128.816 6.08292 128.627 6.58922 128.25C7.09551 127.873 7.35051 127.352 7.35051 126.683C7.35051 126.17 7.21377 125.722 6.944 125.345C6.67052 124.968 6.33792 124.654 5.94619 124.403C5.55446 124.152 4.99273 123.849 4.26839 123.483C3.40732 123.062 2.81603 122.744 2.49821 122.529C1.03107 121.546 0.299342 120.186 0.299342 118.446C0.299342 117.008 0.776072 115.911 1.72953 115.146C2.68299 114.381 3.88405 114 5.33642 114C6.89225 114 8.21527 114.447 9.30547 115.338L8.10441 117.404C7.81615 117.101 7.41333 116.842 6.89225 116.62C6.37118 116.402 5.81315 116.291 5.22555 116.291C4.46796 116.291 3.87666 116.461 3.44428 116.801C3.0119 117.141 2.79755 117.644 2.79755 118.309C2.79755 118.778 2.93429 119.196 3.20407 119.569C3.47754 119.939 3.82123 120.26 4.23513 120.534C4.64904 120.807 5.21446 121.14 5.92401 121.532C6.604 121.909 7.12508 122.208 7.49094 122.426C7.85311 122.644 8.1931 122.906 8.51092 123.209C8.95069 123.601 9.30547 124.07 9.57525 124.617C9.84872 125.161 9.98176 125.759 9.98176 126.41C9.98176 127.422 9.75263 128.283 9.29069 128.997C8.82874 129.706 8.1931 130.246 7.38377 130.608C6.57444 130.97 5.65424 131.151 4.62687 131.151C3.72145 131.151 2.82342 130.992 1.92909 130.674Z" fill="white"/>
<path d="M28 114H31.6734C33.7466 114 35.2618 114.443 36.2227 115.327C37.1835 116.21 37.6639 117.426 37.6639 118.967C37.6639 120.752 37.1429 122.119 36.1007 123.073C35.0586 124.026 33.5064 124.503 31.4517 124.503H30.5684V130.671H28.0037V114H28ZM31.5145 122.26C32.8449 122.26 33.7762 121.964 34.3047 121.376C34.8331 120.785 35.0992 120.076 35.0992 119.244C35.0992 118.353 34.8405 117.625 34.3268 117.067C33.8131 116.509 32.9521 116.228 31.7399 116.228H30.561V122.263H31.5145V122.26Z" fill="white"/>
<path d="M55 114H62.3025V116.221H57.5167V120.826H61.3712V123.095H57.5167V128.424H63.0527V130.671H55V114Z" fill="white"/>
<path d="M81 114H88.3025V116.221H83.5167V120.826H87.3712V123.095H83.5167V128.424H89.0527V130.671H81V114Z" fill="white"/>
<path d="M110.891 129.946C109.628 129.174 108.663 128.143 107.998 126.85C107.333 125.556 107 124.133 107 122.574C107 120.926 107.358 119.451 108.079 118.15C108.796 116.849 109.805 115.833 111.106 115.101C112.407 114.37 113.881 114 115.529 114C116.269 114 116.963 114.078 117.606 114.237C118.249 114.395 118.782 114.577 119.206 114.78C119.631 114.983 119.909 115.153 120.045 115.29L118.933 117.559C118.009 116.742 116.808 116.336 115.326 116.336C114.284 116.336 113.338 116.594 112.492 117.108C111.645 117.622 110.98 118.357 110.496 119.307C110.012 120.26 109.772 121.365 109.772 122.618C109.772 123.767 109.986 124.81 110.418 125.748C110.851 126.687 111.479 127.426 112.311 127.973C113.142 128.516 114.132 128.79 115.282 128.79C116.612 128.79 117.898 128.413 119.136 127.655L119.886 129.81C119.554 130.113 118.944 130.405 118.061 130.682C117.178 130.959 116.28 131.103 115.374 131.103C113.648 131.103 112.155 130.715 110.891 129.946Z" fill="white"/>
<path d="M138 114H140.539V120.804H146.415V114H148.954V130.671H146.415V122.936H140.539V130.671H138V114Z" fill="white"/>
<path d="M169.657 130.893C168.87 130.53 168.231 129.983 167.739 129.248C167.248 128.516 167 127.611 167 126.539C167 125.6 167.27 124.773 167.806 124.056C168.341 123.339 169.125 122.614 170.152 121.89C169.487 121.029 169.018 120.319 168.744 119.758C168.471 119.2 168.338 118.571 168.338 117.877C168.338 117.104 168.519 116.424 168.881 115.837C169.243 115.245 169.735 114.795 170.356 114.477C170.976 114.159 171.671 114 172.444 114C173.246 114 173.937 114.163 174.52 114.488C175.101 114.813 175.548 115.249 175.858 115.792C176.169 116.336 176.324 116.927 176.324 117.563C176.324 118.472 176.106 119.296 175.666 120.035C175.226 120.778 174.45 121.617 173.331 122.552C174.103 123.564 175.16 124.917 176.505 126.613C177.396 125.826 178.109 124.994 178.637 124.118L180.518 125.66C180.215 126.085 179.838 126.539 179.384 127.031C178.929 127.522 178.438 127.98 177.909 128.402C178.663 129.37 179.391 130.268 180.086 131.099H177.362L176.431 129.965C175.115 130.948 173.7 131.439 172.189 131.439C171.291 131.439 170.444 131.258 169.657 130.893ZM173.571 129C173.985 128.871 174.45 128.583 174.964 128.128L172.787 125.405L171.538 123.838C170.858 124.337 170.385 124.795 170.119 125.209C169.853 125.623 169.724 126.096 169.724 126.628C169.724 127.385 169.949 127.999 170.404 128.476C170.858 128.952 171.516 129.189 172.377 129.189C172.758 129.193 173.153 129.13 173.571 129ZM173.56 119.144C173.863 118.704 174.014 118.198 174.014 117.625C174.014 117.141 173.866 116.757 173.571 116.469C173.275 116.18 172.872 116.036 172.359 116.036C171.889 116.036 171.479 116.195 171.121 116.513C170.766 116.831 170.588 117.285 170.588 117.873C170.588 118.25 170.707 118.664 170.939 119.107C171.172 119.554 171.527 120.079 171.993 120.685C172.736 120.098 173.257 119.584 173.56 119.144Z" fill="white"/>
<path d="M198 114H202.013C205.369 114 207.719 114.795 209.057 116.38C210.395 117.969 211.064 119.857 211.064 122.049C211.064 123.575 210.776 124.987 210.203 126.28C209.626 127.574 208.68 128.627 207.357 129.444C206.034 130.261 204.297 130.667 202.15 130.667H198V114ZM202.424 128.428C204.512 128.428 206.027 127.833 206.973 126.646C207.919 125.46 208.392 123.967 208.392 122.167C208.392 120.412 207.915 118.985 206.962 117.88C206.008 116.775 204.497 116.225 202.424 116.225H200.543V128.428H202.424Z" fill="white"/>
<path d="M237.322 130.671L233.967 124.366C233.272 124.396 232.651 124.41 232.108 124.41H231.472V130.671H229V114H232.788C234.71 114 236.288 114.395 237.529 115.19C238.767 115.985 239.388 117.274 239.388 119.056C239.388 120.175 239.126 121.14 238.605 121.949C238.084 122.759 237.308 123.383 236.28 123.819L240.249 130.671H237.322ZM233.08 122.345C234.562 122.345 235.578 122.023 236.129 121.38C236.679 120.737 236.957 119.972 236.957 119.078C236.957 117.097 235.634 116.106 232.988 116.106H231.469V122.345H233.08Z" fill="white"/>
<path d="M266.234 114L274.264 130.693H271.337L269.907 127.426H262.265L260.835 130.693H258L265.982 114H266.234ZM265.099 121.099L263.285 125.135H268.909L267.117 121.121L266.141 118.83H266.097L265.099 121.099Z" fill="white"/>
<path d="M297.577 122.892L296.534 120.534L296.058 122.892L294.517 130.671H292L295.448 114H295.721L300.304 123.006L301.664 126.022L303.024 123.006L307.514 114H307.762L311.346 130.671H308.852L307.174 122.892L306.675 120.534L305.766 122.892L301.73 130.671H301.594L297.577 122.892Z" fill="white"/>
<path d="M337.234 114L345.264 130.693H342.337L340.907 127.426H333.265L331.835 130.693H329L336.982 114H337.234ZM336.099 121.099L334.285 125.135H339.909L338.117 121.121L337.141 118.83H337.097L336.099 121.099Z" fill="white"/>
<path fill-rule="evenodd" clip-rule="evenodd" d="M141.409 0.781438C141.175 1.19444 139.994 4.54744 138.784 8.23344C136.371 15.5884 129.1 27.7504 119.024 41.2874C115.439 46.1024 112.738 50.6454 113.02 51.3824C113.388 52.3404 116.737 52.8914 124.763 53.3144C130.939 53.6404 136.443 54.3584 136.994 54.9094C137.664 55.5794 137.394 58.7794 136.182 64.5554C134.626 71.9734 134.57 73.3254 135.792 74.0964C137.914 75.4344 139.123 73.1954 141.209 64.0624C143.18 55.4334 143.83 54.4144 147.716 53.8774C149.412 53.6424 150.216 52.9024 150.216 51.5764C150.216 50.3214 149.322 49.4024 147.716 49.0104C144.714 48.2754 144.469 50.2954 150.84 23.2954C153.596 11.6154 155.569 1.60344 155.225 1.04544C153.893 -1.10956 151.75 0.195438 150.733 3.78144C150.148 5.84444 147.637 16.0654 145.153 26.4964C142.669 36.9274 139.91 46.2644 139.021 47.2464C137.717 48.6884 135.801 49.0314 129.061 49.0314C124.12 49.0314 120.716 48.6204 120.716 48.0234C120.716 47.4684 123.727 42.8564 127.406 37.7734C138.756 22.0934 147.203 3.91844 144.429 1.14444C143.137 -0.147563 142.012 -0.282562 141.409 0.781438ZM220.254 10.2814C211.418 19.9544 204.291 30.3484 198.161 42.5064C193.883 50.9894 192.193 53.2664 187.175 57.3094C183.914 59.9374 180.564 61.9494 179.731 61.7804C177.067 61.2414 178.012 53.3164 181.643 45.7414C183.434 42.0064 184.647 38.2934 184.339 37.4914C182.832 33.5644 176.277 37.4154 166.704 47.8534L159.663 55.5314L162.244 48.6144C163.663 44.8094 165.25 40.9014 165.77 39.9294C167.194 37.2704 166.954 36.8694 164.149 37.2154C161.818 37.5024 161.176 38.7164 157.143 50.4424C154.702 57.5424 152.927 63.5764 153.2 63.8494C154.457 65.1054 158.116 61.8224 164.66 53.5674C171.123 45.4124 177.06 40.0424 178.272 41.2544C178.532 41.5144 177.566 44.3004 176.126 47.4464C172.655 55.0284 171.985 60.1574 174.18 62.3524C177.502 65.6744 182.642 64.0514 189.696 57.4534L194.62 52.8474L194.055 56.3314C191.559 71.7104 212.008 77.3284 225.918 65.0854C239.25 53.3494 231.058 43.3664 212.216 48.3874C209.466 49.1204 205.779 50.4634 204.023 51.3724C202.222 52.3034 200.581 52.6214 200.259 52.1004C199.463 50.8134 203.238 41.5224 206.991 35.5314C211.392 28.5044 218.237 19.6074 224.915 12.2344C230.311 6.27644 231.466 3.03144 228.19 3.03144C227.468 3.03144 223.897 6.29444 220.254 10.2814ZM227.528 54.2754C228.087 57.2094 223.956 61.7674 218.175 64.5954C213.747 66.7614 211.715 67.1894 207.689 66.8024C202.725 66.3254 198.716 63.9324 198.716 61.4444C198.716 59.6184 203.892 56.1824 209.984 53.9644C216.792 51.4864 227.031 51.6674 227.528 54.2754Z" fill="white"/>
</g>
<defs>
<clipPath id="clip0_943_767">
<rect width="345" height="131" fill="white"/>
</clipPath>
</defs>
</svg>
