<svg width="32" height="32" viewBox="0 0 32 32" fill="none" xmlns="http://www.w3.org/2000/svg">
<rect width="32" height="32" fill="white"/>
<path d="M28.0919 17.274C27.8567 17.1896 27.6106 17.139 27.3575 17.1385C26.5441 17.1341 25.7628 17.3029 25.006 17.5904C24.7142 17.7014 24.43 17.8315 24.1573 17.9834C24.0778 18.0286 23.9869 18.0466 23.909 17.9715C23.8404 17.905 23.8589 17.8266 23.8872 17.7472C23.9656 17.5294 24.038 17.3089 24.1202 17.0922C24.6718 15.6467 25.5832 14.4234 26.519 13.2158C27.0891 12.4803 27.7173 11.7959 28.3729 11.1355C28.5748 10.9319 28.583 10.6809 28.4175 10.5176C28.2645 10.3678 28.0266 10.3978 27.8322 10.6052C27.4348 11.0288 27.0232 11.4404 26.6524 11.8874C25.2037 13.635 23.7751 15.399 23.1517 17.6502C23.1364 17.7041 23.1239 17.77 23.0292 17.7537C22.8457 17.7216 22.7374 17.849 22.6198 17.96C21.6539 18.8774 20.6097 19.681 19.3308 20.1127C17.6888 20.6664 16.3985 20.3463 15.4637 18.7963C15.3635 18.6291 15.2279 18.4827 15.1093 18.3275C14.775 17.8887 14.3242 17.8011 13.8157 17.9029C13.5881 17.9486 13.3703 18.0264 13.1618 18.1321C12.6141 18.4086 12.1486 18.7968 11.6945 19.2013C11.6374 19.2525 11.5857 19.3347 11.4904 19.2874C11.3826 19.2335 11.4474 19.1491 11.4632 19.0767C11.5492 18.6847 11.6379 18.2927 11.725 17.9012C11.7953 17.5844 11.7109 17.3949 11.4757 17.3426C11.2405 17.2898 11.0624 17.4292 10.9955 17.7254C10.7766 18.6907 10.5637 19.657 10.3373 20.6207C10.2844 20.8466 10.2937 21.0345 10.5164 21.1461C10.7423 21.2588 10.9046 21.1434 11.0494 20.9713C11.4403 20.5053 11.8552 20.0605 12.3087 19.6554C12.7557 19.2552 13.225 18.8845 13.8004 18.6792C14.2398 18.5224 14.4271 18.5796 14.6917 18.9618C14.8392 19.1741 14.9628 19.4033 15.1169 19.6108C15.9482 20.7274 17.048 21.2277 18.4456 21.0748C19.1768 20.9942 19.8475 20.7514 20.497 20.4242C21.3812 19.9793 22.1575 19.3837 22.8991 18.7369C22.9688 18.9155 22.8882 19.1061 22.9448 19.2863C23.0145 19.7844 23.2225 20.2058 23.6368 20.5091C23.9602 20.7459 24.325 20.8646 24.7202 20.9316C26.2289 21.1869 28.0179 20.3147 28.73 18.9623C29.1078 18.2431 28.8471 17.5441 28.0919 17.274ZM28.0266 18.6787C27.8366 18.9934 27.5992 19.2732 27.3096 19.5013C26.7172 19.9679 26.0459 20.2211 25.2859 20.2222C24.9549 20.2227 24.626 20.202 24.3157 20.0746C24.0876 19.9804 23.8932 19.8443 23.7952 19.6042C23.6918 19.3527 23.7435 19.1458 23.9607 18.9945C24.9336 18.3166 26.01 17.9355 27.1985 17.8822C27.3776 17.8735 27.554 17.8892 27.7277 17.9372C28.1447 18.052 28.252 18.3041 28.0266 18.6787Z" fill="#282929" stroke="#282929" stroke-width="0.5"/>
<path d="M5.09326 17.3777C5.75258 17.4022 6.35636 17.4251 6.96068 17.4474C8.02996 17.4871 8.16444 17.3859 8.4078 16.3585C8.87602 14.38 9.34369 12.401 9.81136 10.4225C9.81735 10.3964 9.82116 10.3697 9.82824 10.3441C9.89466 10.1105 10.076 9.97334 10.272 10.0087C10.4767 10.0452 10.6095 10.2592 10.5562 10.508C10.4685 10.9179 10.3651 11.3241 10.2687 11.7319C9.84566 13.5198 9.42154 15.3072 9.00015 17.0951C8.91522 17.4566 8.95605 17.504 9.31701 17.516C9.40575 17.5187 9.49613 17.5247 9.58215 17.5448C9.77325 17.59 9.87234 17.7201 9.86363 17.914C9.85492 18.11 9.73187 18.2172 9.54731 18.2586C9.52989 18.2624 9.51192 18.2624 9.49395 18.264C8.74426 18.3359 8.69635 18.3795 8.52376 19.1068C8.37132 19.7487 8.2167 20.3906 8.05718 21.0309C7.98205 21.3336 7.82743 21.4457 7.59604 21.3837C7.35976 21.3205 7.27156 21.149 7.33852 20.8583C7.49968 20.163 7.66736 19.47 7.82743 18.7747C7.91345 18.3991 7.76808 18.2238 7.37827 18.2091C6.41352 18.1737 5.44932 18.1356 4.48458 18.1013C4.29838 18.0947 4.11981 18.074 4.03324 17.8802C3.9494 17.6918 4.0376 17.5399 4.14866 17.388C4.97022 16.2638 5.8239 15.1624 6.58339 13.9935C7.32056 12.8589 7.95809 11.678 8.25754 10.3419C8.31198 10.0986 8.52485 9.95973 8.72684 10.0104C8.92719 10.0604 9.0241 10.2695 8.96748 10.5298C8.64517 12.0008 7.96082 13.308 7.12184 14.5385C6.51316 15.4308 5.86854 16.2981 5.23972 17.1763C5.20378 17.2253 5.16731 17.2748 5.09326 17.3777Z" fill="#282929" stroke="#282929" stroke-width="0.5"/>
</svg>
