<svg width="32" height="32" viewBox="0 0 32 32" fill="none" xmlns="http://www.w3.org/2000/svg">
<rect width="32" height="32" fill="white"/>
<path d="M1.52586 21.1086C1.45238 21.0824 1.39932 21.0531 1.3667 21.0208L1.46579 20.8431C1.49201 20.8668 1.53287 20.8915 1.58836 20.9169C1.64386 20.9425 1.69721 20.9553 1.74844 20.9553C1.8146 20.9553 1.86857 20.9397 1.91034 20.9086C1.95211 20.8775 1.97315 20.8345 1.97315 20.7793C1.97315 20.737 1.96187 20.7001 1.93961 20.669C1.91705 20.6379 1.88961 20.6119 1.85729 20.5912C1.82497 20.5705 1.77862 20.5455 1.71886 20.5153C1.64782 20.4805 1.59904 20.4543 1.57281 20.4366C1.45177 20.3555 1.3914 20.2433 1.3914 20.0997C1.3914 19.9811 1.43073 19.8905 1.50939 19.8274C1.58806 19.7643 1.68715 19.7329 1.80698 19.7329C1.93534 19.7329 2.0445 19.7698 2.13445 19.8433L2.03535 20.0137C2.01157 19.9887 1.97834 19.9674 1.93534 19.9491C1.89235 19.9311 1.84631 19.922 1.79783 19.922C1.73533 19.922 1.68654 19.936 1.65087 19.964C1.6152 19.9921 1.59751 20.0335 1.59751 20.0884C1.59751 20.1272 1.60879 20.1616 1.63105 20.1924C1.65361 20.2229 1.68197 20.2494 1.71612 20.272C1.75027 20.2945 1.79692 20.322 1.85546 20.3543C1.91156 20.3854 1.95455 20.4101 1.98474 20.4281C2.01462 20.4461 2.04267 20.4677 2.06889 20.4927C2.10518 20.5251 2.13445 20.5638 2.1567 20.6089C2.17927 20.6537 2.19024 20.7031 2.19024 20.7568C2.19024 20.8403 2.17134 20.9114 2.13323 20.9702C2.09511 21.0288 2.04267 21.0733 1.9759 21.1031C1.90912 21.133 1.8332 21.148 1.74844 21.148C1.67374 21.148 1.59965 21.1349 1.52586 21.1086Z" fill="#282929"/>
<path d="M3.79993 19.7539H4.103C4.27405 19.7539 4.39906 19.7905 4.47834 19.8634C4.55761 19.9362 4.59725 20.0366 4.59725 20.1637C4.59725 20.311 4.55426 20.4238 4.46828 20.5024C4.38229 20.5811 4.25423 20.6204 4.08471 20.6204H4.01183V21.1293H3.80023V19.7539H3.79993ZM4.08989 20.4354C4.19966 20.4354 4.27649 20.411 4.32009 20.3625C4.36369 20.3137 4.38565 20.2552 4.38565 20.1866C4.38565 20.1131 4.3643 20.053 4.32192 20.007C4.27954 19.9609 4.2085 19.9378 4.10849 19.9378H4.01122V20.4357H4.08989V20.4354Z" fill="#282929"/>
<path d="M6.17444 19.7539H6.77693V19.9372H6.38208V20.3171H6.70009V20.5043H6.38208V20.9439H6.83882V21.1293H6.17444V19.7539Z" fill="#282929"/>
<path d="M8.43323 19.7539H9.03572V19.9372H8.64087V20.3171H8.95888V20.5043H8.64087V20.9439H9.09761V21.1293H8.43323V19.7539Z" fill="#282929"/>
<path d="M10.9492 21.0471C10.845 20.9834 10.7654 20.8983 10.7105 20.7916C10.6556 20.6849 10.6282 20.5675 10.6282 20.4388C10.6282 20.3028 10.6577 20.1812 10.7172 20.0739C10.7764 19.9665 10.8596 19.8827 10.9669 19.8223C11.0742 19.7619 11.1959 19.7314 11.3319 19.7314C11.3929 19.7314 11.4502 19.7378 11.5032 19.751C11.5563 19.7641 11.6002 19.779 11.6353 19.7958C11.6703 19.8125 11.6932 19.8266 11.7045 19.8379L11.6127 20.0251C11.5365 19.9577 11.4374 19.9241 11.3151 19.9241C11.2291 19.9241 11.1511 19.9455 11.0813 19.9879C11.0114 20.0303 10.9566 20.0909 10.9166 20.1693C10.8767 20.248 10.8569 20.3391 10.8569 20.4425C10.8569 20.5373 10.8745 20.6233 10.9102 20.7007C10.9459 20.7782 10.9977 20.8392 11.0663 20.8843C11.1349 20.9291 11.2166 20.9517 11.3115 20.9517C11.4212 20.9517 11.5273 20.9206 11.6295 20.8581L11.6914 21.0358C11.6639 21.0608 11.6136 21.0849 11.5408 21.1078C11.4679 21.1306 11.3938 21.1425 11.3191 21.1425C11.1767 21.1425 11.0535 21.1105 10.9492 21.0471Z" fill="#282929"/>
<path d="M13.2915 19.7539H13.501V20.3152H13.9858V19.7539H14.1952V21.1293H13.9858V20.4912H13.501V21.1293H13.2915V19.7539Z" fill="#282929"/>
<path d="M16.1151 21.1125C16.0502 21.0826 15.9974 21.0375 15.9569 20.9768C15.9163 20.9164 15.8959 20.8417 15.8959 20.7533C15.8959 20.6758 15.9181 20.6075 15.9623 20.5484C16.0066 20.4892 16.0712 20.4295 16.156 20.3697C16.1011 20.2987 16.0624 20.2401 16.0398 20.1938C16.0172 20.1478 16.0062 20.0959 16.0062 20.0386C16.0062 19.9749 16.0212 19.9188 16.0511 19.8703C16.0809 19.8215 16.1215 19.7843 16.1727 19.7581C16.2239 19.7319 16.2813 19.7188 16.345 19.7188C16.4112 19.7188 16.4682 19.7322 16.5164 19.759C16.5642 19.7858 16.6011 19.8218 16.6267 19.8666C16.6523 19.9114 16.6651 19.9602 16.6651 20.0127C16.6651 20.0877 16.6472 20.1557 16.6109 20.2167C16.5746 20.2779 16.5106 20.3472 16.4182 20.4243C16.4819 20.5078 16.5691 20.6194 16.6801 20.7594C16.7536 20.6944 16.8124 20.6258 16.856 20.5536L17.0112 20.6807C16.9862 20.7158 16.9551 20.7533 16.9176 20.7938C16.8801 20.8344 16.8396 20.8722 16.7959 20.907C16.8581 20.9868 16.9182 21.0609 16.9755 21.1295H16.7508L16.674 21.0359C16.5654 21.117 16.4487 21.1576 16.324 21.1576C16.2499 21.1576 16.18 21.1427 16.1151 21.1125ZM16.438 20.9564C16.4721 20.9457 16.5106 20.9219 16.5529 20.8844L16.3734 20.6597L16.2703 20.5304C16.2142 20.5716 16.1752 20.6094 16.1532 20.6435C16.1313 20.6777 16.1206 20.7167 16.1206 20.7606C16.1206 20.8231 16.1392 20.8737 16.1767 20.9131C16.2142 20.9524 16.2685 20.9719 16.3395 20.9719C16.3709 20.9722 16.4035 20.967 16.438 20.9564ZM16.4371 20.1432C16.4621 20.1069 16.4746 20.0651 16.4746 20.0179C16.4746 19.9779 16.4624 19.9462 16.438 19.9224C16.4136 19.8986 16.3804 19.8868 16.338 19.8868C16.2993 19.8868 16.2654 19.8999 16.2358 19.9261C16.2066 19.9523 16.1919 19.9898 16.1919 20.0383C16.1919 20.0694 16.2017 20.1035 16.2209 20.1401C16.2401 20.177 16.2694 20.2203 16.3078 20.2703C16.3691 20.2218 16.4121 20.1795 16.4371 20.1432Z" fill="#282929"/>
<path d="M18.6566 19.7539H18.9877C19.2646 19.7539 19.4585 19.8195 19.5689 19.9503C19.6793 20.0814 19.7345 20.2372 19.7345 20.418C19.7345 20.5439 19.7107 20.6604 19.6634 20.7671C19.6158 20.8738 19.5378 20.9607 19.4286 21.0281C19.3195 21.0955 19.1762 21.129 18.999 21.129H18.6566V19.7539ZM19.0216 20.9442C19.1939 20.9442 19.3189 20.8952 19.3969 20.7973C19.475 20.6994 19.514 20.5762 19.514 20.4277C19.514 20.2829 19.4747 20.1652 19.396 20.0741C19.3173 19.9829 19.1926 19.9375 19.0216 19.9375H18.8664V20.9442H19.0216Z" fill="#282929"/>
<path d="M22.0156 21.1296L21.7388 20.6094C21.6814 20.6118 21.6302 20.6131 21.5854 20.6131H21.533V21.1296H21.329V19.7542H21.6415C21.8001 19.7542 21.9302 19.7868 22.0327 19.8523C22.1348 19.9179 22.1861 20.0243 22.1861 20.1713C22.1861 20.2636 22.1644 20.3432 22.1214 20.41C22.0784 20.4768 22.0144 20.5283 21.9296 20.5643L22.2571 21.1296H22.0156ZM21.6656 20.4426C21.7879 20.4426 21.8717 20.4161 21.9171 20.363C21.9626 20.31 21.9854 20.2469 21.9854 20.1731C21.9854 20.0097 21.8763 19.9279 21.658 19.9279H21.5327V20.4426H21.6656Z" fill="#282929"/>
<path d="M24.3585 19.752L25.0211 21.1292H24.7796L24.6616 20.8597H24.0311L23.9131 21.1292H23.6792L24.3378 19.752H24.3585ZM24.2649 20.3377L24.1152 20.6706H24.5793L24.4314 20.3395L24.3509 20.1505H24.3472L24.2649 20.3377Z" fill="#282929"/>
<path d="M26.8759 20.4875L26.7899 20.293L26.7506 20.4875L26.6234 21.1293H26.4158L26.7002 19.7539H26.7228L27.1009 20.497L27.2131 20.7458L27.3253 20.497L27.6958 19.7539H27.7162L28.0119 21.1293H27.8061L27.6677 20.4875L27.6265 20.293L27.5515 20.4875L27.2186 21.1293H27.2073L26.8759 20.4875Z" fill="#282929"/>
<path d="M30.0853 19.752L30.7479 21.1292H30.5064L30.3884 20.8597H29.7579L29.6399 21.1292H29.406L30.0646 19.752H30.0853ZM29.9917 20.3377L29.842 20.6706H30.3061L30.1582 20.3395L30.0777 20.1505H30.0741L29.9917 20.3377Z" fill="#282929"/>
<path d="M22.4924 14.0737C22.3606 14.0264 22.2228 13.998 22.081 13.9977C21.6255 13.9953 21.188 14.0898 20.7642 14.2508C20.6007 14.313 20.4416 14.3859 20.2888 14.4709C20.2443 14.4963 20.1934 14.5063 20.1498 14.4642C20.1114 14.427 20.1217 14.3831 20.1376 14.3386C20.1815 14.2167 20.222 14.0932 20.2681 13.9718C20.577 13.1623 21.0874 12.4772 21.6115 11.8009C21.9307 11.389 22.2826 11.0057 22.6497 10.6359C22.7628 10.5218 22.7674 10.3813 22.6747 10.2898C22.589 10.206 22.4558 10.2227 22.3469 10.3389C22.1243 10.5761 21.8938 10.8066 21.6862 11.0569C20.8748 12.0357 20.0748 13.0236 19.7257 14.2843C19.7171 14.3145 19.7101 14.3514 19.6571 14.3423C19.5543 14.3243 19.4936 14.3956 19.4278 14.4578C18.8869 14.9716 18.3021 15.4216 17.5858 15.6634C16.6663 15.9735 15.9436 15.7942 15.4201 14.9262C15.364 14.8326 15.2881 14.7505 15.2216 14.6636C15.0344 14.4179 14.7819 14.3688 14.4972 14.4258C14.3697 14.4514 14.2478 14.495 14.131 14.5542C13.8242 14.7091 13.5636 14.9265 13.3093 15.153C13.2772 15.1817 13.2483 15.2277 13.1949 15.2012C13.1346 15.171 13.1708 15.1237 13.1797 15.0832C13.2279 14.8637 13.2776 14.6441 13.3263 14.4249C13.3657 14.2474 13.3184 14.1413 13.1867 14.1121C13.055 14.0825 12.9553 14.1606 12.9178 14.3264C12.7952 14.867 12.676 15.4082 12.5491 15.9479C12.5196 16.0744 12.5247 16.1796 12.6495 16.2421C12.776 16.3052 12.8668 16.2406 12.948 16.1443C13.1669 15.8833 13.3992 15.6342 13.6532 15.4073C13.9035 15.1832 14.1663 14.9756 14.4886 14.8606C14.7347 14.7728 14.8396 14.8048 14.9878 15.0189C15.0704 15.1378 15.1396 15.2661 15.2259 15.3823C15.6915 16.0077 16.3074 16.2879 17.0901 16.2022C17.4996 16.1571 17.8752 16.0211 18.2389 15.8378C18.7341 15.5887 19.1689 15.2552 19.5842 14.8929C19.6232 14.9929 19.5781 15.0997 19.6098 15.2006C19.6488 15.4796 19.7653 15.7156 19.9973 15.8854C20.1784 16.018 20.3827 16.0845 20.6041 16.122C21.449 16.265 22.4509 15.7765 22.8497 15.0192C23.0613 14.6164 22.9153 14.2249 22.4924 14.0737ZM22.4558 14.8603C22.3494 15.0365 22.2164 15.1933 22.0542 15.321C21.7225 15.5823 21.3465 15.7241 20.9209 15.7247C20.7355 15.725 20.5513 15.7134 20.3775 15.6421C20.2498 15.5893 20.1409 15.5131 20.0861 15.3786C20.0281 15.2378 20.0571 15.1219 20.1787 15.0371C20.7236 14.6575 21.3264 14.4441 21.992 14.4142C22.0923 14.4094 22.1911 14.4182 22.2884 14.445C22.5219 14.5094 22.582 14.6505 22.4558 14.8603Z" fill="#282929"/>
<path d="M9.61226 14.1318C9.9815 14.1455 10.3196 14.1583 10.6581 14.1708C11.2569 14.193 11.3322 14.1363 11.4685 13.561C11.7307 12.453 11.9926 11.3446 12.2546 10.2366C12.2579 10.222 12.26 10.207 12.264 10.1927C12.3012 10.0619 12.4027 9.98507 12.5125 10.0049C12.6272 10.0253 12.7016 10.1451 12.6717 10.2845C12.6226 10.5141 12.5646 10.7415 12.5107 10.9699C12.2738 11.9712 12.0362 12.9722 11.8003 13.9735C11.7527 14.176 11.7756 14.2025 11.9777 14.2092C12.0274 14.2107 12.078 14.2141 12.1262 14.2254C12.2332 14.2507 12.2887 14.3235 12.2838 14.4321C12.279 14.5419 12.21 14.6019 12.1067 14.6251C12.0969 14.6272 12.0869 14.6272 12.0768 14.6281C11.6569 14.6684 11.6301 14.6928 11.5335 15.1001C11.4481 15.4596 11.3615 15.8191 11.2722 16.1777C11.2301 16.3472 11.1435 16.41 11.0139 16.3752C10.8816 16.3399 10.8322 16.2438 10.8697 16.081C10.9599 15.6916 11.0538 15.3035 11.1435 14.9141C11.1917 14.7038 11.1103 14.6056 10.8919 14.5973C10.3517 14.5775 9.81167 14.5562 9.27138 14.537C9.1671 14.5333 9.0671 14.5217 9.01862 14.4132C8.97166 14.3077 9.02106 14.2226 9.08326 14.1376C9.54336 13.5079 10.0214 12.8911 10.4468 12.2365C10.8596 11.6011 11.2167 10.9397 11.3844 10.1915C11.4149 10.0552 11.5341 9.97745 11.6472 10.0058C11.7594 10.0339 11.8137 10.1509 11.782 10.2967C11.6015 11.1205 11.2182 11.8526 10.7483 12.5417C10.4075 13.0414 10.0464 13.5271 9.69428 14.0189C9.67416 14.0464 9.65373 14.0741 9.61226 14.1318Z" fill="#282929"/>
</svg>
