<svg width="648" height="633" viewBox="0 0 648 633" fill="none" xmlns="http://www.w3.org/2000/svg">
<g clip-path="url(#clip0_202_14)">
<path d="M411.146 142.174H236.636C232.659 142.179 228.847 143.761 226.035 146.573C223.223 149.385 221.641 153.197 221.636 157.174V545.024L219.636 545.634L176.826 558.744C174.797 559.362 172.606 559.151 170.733 558.155C168.86 557.16 167.459 555.462 166.836 553.434L39.4961 137.484C38.8764 135.455 39.0876 133.263 40.0833 131.39C41.079 129.516 42.7778 128.115 44.8062 127.494L110.776 107.294L302.026 48.7538L367.996 28.5538C369 28.2448 370.055 28.1368 371.101 28.2361C372.147 28.3353 373.162 28.6398 374.09 29.132C375.018 29.6243 375.84 30.2947 376.509 31.105C377.177 31.9152 377.679 32.8493 377.986 33.8538L410.536 140.174L411.146 142.174Z" fill="#F2F2F2"/>
<path d="M449.226 140.174L409.996 12.0338C409.343 9.89876 408.276 7.91324 406.856 6.19071C405.436 4.46819 403.69 3.04242 401.718 1.99488C399.747 0.94734 397.588 0.298544 395.366 0.0855958C393.143 -0.127353 390.901 0.0997176 388.766 0.753809L296.016 29.1438L104.776 87.6938L12.0264 116.094C7.71776 117.417 4.11004 120.395 1.99518 124.376C-0.119678 128.356 -0.568904 133.013 0.746128 137.324L134.826 575.254C135.894 578.734 138.05 581.78 140.976 583.945C143.903 586.11 147.446 587.28 151.086 587.284C152.771 587.285 154.447 587.032 156.056 586.534L219.636 567.074L221.636 566.454V564.364L219.636 564.974L155.466 584.624C151.663 585.783 147.555 585.387 144.044 583.521C140.533 581.656 137.905 578.474 136.736 574.674L2.66654 136.734C2.08763 134.851 1.88586 132.872 2.07279 130.911C2.25971 128.95 2.83164 127.045 3.75586 125.305C4.68008 123.565 5.93844 122.025 7.45884 120.772C8.97923 119.519 10.7318 118.578 12.6162 118.004L105.366 89.6038L296.606 31.0638L389.356 2.66383C390.786 2.22763 392.272 2.00522 393.766 2.00382C396.973 2.01103 400.094 3.04498 402.671 4.95425C405.248 6.86351 407.146 9.54776 408.086 12.6138L447.136 140.174L447.756 142.174H449.836L449.226 140.174Z" fill="#3F3D56"/>
<path d="M122.681 127.821C120.754 127.819 118.877 127.2 117.328 126.055C115.778 124.909 114.636 123.296 114.07 121.454L101.189 79.3823C100.843 78.2522 100.723 77.065 100.836 75.8884C100.949 74.7119 101.292 73.5691 101.847 72.5253C102.401 71.4815 103.156 70.5572 104.067 69.8051C104.979 69.053 106.03 68.4879 107.16 68.1421L283.099 14.2783C285.382 13.5818 287.847 13.8194 289.955 14.9388C292.062 16.0582 293.639 17.968 294.34 20.249L307.221 62.3213C307.917 64.6036 307.679 67.0689 306.559 69.1762C305.44 71.2835 303.531 72.8608 301.25 73.562L125.31 127.426C124.458 127.687 123.572 127.82 122.681 127.821Z" fill="#EF8A17"/>
<path d="M190.154 44.9547C201.199 44.9547 210.154 36.0003 210.154 24.9547C210.154 13.909 201.199 4.95465 190.154 4.95465C179.108 4.95465 170.154 13.909 170.154 24.9547C170.154 36.0003 179.108 44.9547 190.154 44.9547Z" fill="#EF8A17"/>
<path d="M190.154 37.6193C197.148 37.6193 202.818 31.9491 202.818 24.9547C202.818 17.9602 197.148 12.29 190.154 12.29C183.159 12.29 177.489 17.9602 177.489 24.9547C177.489 31.9491 183.159 37.6193 190.154 37.6193Z" fill="white"/>
<path d="M602.636 582.174H264.636C262.383 582.171 260.222 581.275 258.629 579.681C257.035 578.088 256.139 575.927 256.136 573.674V168.674C256.139 166.42 257.035 164.26 258.629 162.666C260.222 161.073 262.383 160.176 264.636 160.174H602.636C604.89 160.176 607.05 161.073 608.644 162.666C610.237 164.26 611.134 166.42 611.136 168.674V573.674C611.134 575.927 610.237 578.088 608.644 579.681C607.05 581.275 604.89 582.171 602.636 582.174Z" fill="#F2F2F2"/>
<path d="M447.136 140.174H236.636C232.13 140.18 227.809 141.973 224.622 145.16C221.436 148.347 219.643 152.667 219.636 157.174V564.974L221.636 564.364V157.174C221.641 153.197 223.223 149.385 226.035 146.573C228.847 143.761 232.659 142.179 236.636 142.174H447.756L447.136 140.174ZM630.636 140.174H236.636C232.13 140.18 227.809 141.973 224.622 145.16C221.436 148.347 219.643 152.667 219.636 157.174V615.174C219.643 619.681 221.436 624.001 224.622 627.188C227.809 630.374 232.13 632.167 236.636 632.174H630.636C635.143 632.167 639.463 630.374 642.65 627.188C645.837 624.001 647.63 619.681 647.636 615.174V157.174C647.63 152.667 645.837 148.347 642.65 145.16C639.463 141.973 635.143 140.18 630.636 140.174ZM645.636 615.174C645.631 619.151 644.049 622.963 641.237 625.775C638.425 628.587 634.613 630.169 630.636 630.174H236.636C232.659 630.169 228.847 628.587 226.035 625.775C223.223 622.963 221.641 619.151 221.636 615.174V157.174C221.641 153.197 223.223 149.385 226.035 146.573C228.847 143.761 232.659 142.179 236.636 142.174H630.636C634.613 142.179 638.425 143.761 641.237 146.573C644.049 149.385 645.631 153.197 645.636 157.174V615.174Z" fill="#3F3D56"/>
<path d="M525.636 184.174H341.636C339.25 184.171 336.963 183.222 335.275 181.535C333.588 179.848 332.639 177.56 332.636 175.174V131.174C332.639 128.788 333.588 126.5 335.276 124.813C336.963 123.126 339.25 122.177 341.636 122.174H525.636C528.023 122.177 530.31 123.126 531.997 124.813C533.685 126.5 534.634 128.788 534.636 131.174V175.174C534.634 177.56 533.685 179.848 531.997 181.535C530.31 183.222 528.023 184.171 525.636 184.174Z" fill="#EF8A17"/>
<path d="M433.636 125.174C444.682 125.174 453.636 116.22 453.636 105.174C453.636 94.1281 444.682 85.1738 433.636 85.1738C422.591 85.1738 413.636 94.1281 413.636 105.174C413.636 116.22 422.591 125.174 433.636 125.174Z" fill="#EF8A17"/>
<path d="M433.636 117.356C440.364 117.356 445.818 111.902 445.818 105.174C445.818 98.446 440.364 92.9919 433.636 92.9919C426.908 92.9919 421.454 98.446 421.454 105.174C421.454 111.902 426.908 117.356 433.636 117.356Z" fill="white"/>
<path d="M340.626 353H331.461L310.921 321.8V353H301.756V307.11H310.921L331.461 338.57V307.11H340.626V353ZM365.559 316.535C369.069 316.535 372.21 317.272 374.984 318.745C377.8 320.218 380.01 322.363 381.614 325.18C383.217 327.953 384.019 331.225 384.019 334.995C384.019 338.765 383.217 342.037 381.614 344.81C380.01 347.583 377.8 349.728 374.984 351.245C372.21 352.718 369.069 353.455 365.559 353.455C362.049 353.455 358.885 352.718 356.069 351.245C353.295 349.728 351.107 347.583 349.504 344.81C347.9 342.037 347.099 338.765 347.099 334.995C347.099 331.225 347.9 327.953 349.504 325.18C351.107 322.363 353.295 320.218 356.069 318.745C358.885 317.272 362.049 316.535 365.559 316.535ZM365.559 324.465C363.002 324.465 360.835 325.375 359.059 327.195C357.282 328.972 356.394 331.572 356.394 334.995C356.394 338.418 357.282 341.04 359.059 342.86C360.835 344.637 363.002 345.525 365.559 345.525C368.115 345.525 370.282 344.637 372.059 342.86C373.835 341.04 374.724 338.418 374.724 334.995C374.724 331.572 373.835 328.972 372.059 327.195C370.282 325.375 368.115 324.465 365.559 324.465ZM445.016 329.99C445.016 334.54 444.063 338.548 442.156 342.015C440.25 345.482 437.476 348.19 433.836 350.14C430.24 352.047 425.95 353 420.966 353H404.651V307.11H420.966C425.95 307.11 430.24 308.063 433.836 309.97C437.476 311.833 440.25 314.498 442.156 317.965C444.063 321.388 445.016 325.397 445.016 329.99ZM420.186 344.81C425.126 344.81 428.94 343.51 431.626 340.91C434.356 338.31 435.721 334.67 435.721 329.99C435.721 325.267 434.356 321.605 431.626 319.005C428.94 316.405 425.126 315.105 420.186 315.105H413.816V344.81H420.186ZM465.983 316.535C469.016 316.535 471.616 317.25 473.783 318.68C475.949 320.11 477.488 322.038 478.398 324.465V316.99H487.498V353H478.398V345.46C477.488 347.887 475.949 349.837 473.783 351.31C471.616 352.74 469.016 353.455 465.983 353.455C462.949 353.455 460.219 352.718 457.793 351.245C455.366 349.772 453.459 347.648 452.073 344.875C450.729 342.058 450.058 338.765 450.058 334.995C450.058 331.225 450.729 327.953 452.073 325.18C453.459 322.363 455.366 320.218 457.793 318.745C460.219 317.272 462.949 316.535 465.983 316.535ZM468.843 324.53C465.983 324.53 463.686 325.462 461.953 327.325C460.219 329.188 459.353 331.745 459.353 334.995C459.353 338.245 460.219 340.802 461.953 342.665C463.686 344.485 465.983 345.395 468.843 345.395C471.616 345.395 473.891 344.463 475.668 342.6C477.488 340.693 478.398 338.158 478.398 334.995C478.398 331.788 477.488 329.253 475.668 327.39C473.891 325.483 471.616 324.53 468.843 324.53ZM515.044 345.135V353H510.234C506.204 353 503.105 352.025 500.939 350.075C498.815 348.125 497.754 344.875 497.754 340.325V324.725H492.749V316.99H497.754V308.085H506.919V316.99H514.979V324.725H506.919V340.455C506.919 342.188 507.265 343.402 507.959 344.095C508.652 344.788 509.822 345.135 511.469 345.135H515.044ZM535.744 316.535C538.777 316.535 541.377 317.25 543.544 318.68C545.71 320.11 547.249 322.038 548.159 324.465V316.99H557.259V353H548.159V345.46C547.249 347.887 545.71 349.837 543.544 351.31C541.377 352.74 538.777 353.455 535.744 353.455C532.71 353.455 529.98 352.718 527.554 351.245C525.127 349.772 523.22 347.648 521.834 344.875C520.49 342.058 519.819 338.765 519.819 334.995C519.819 331.225 520.49 327.953 521.834 325.18C523.22 322.363 525.127 320.218 527.554 318.745C529.98 317.272 532.71 316.535 535.744 316.535ZM538.604 324.53C535.744 324.53 533.447 325.462 531.714 327.325C529.98 329.188 529.114 331.745 529.114 334.995C529.114 338.245 529.98 340.802 531.714 342.665C533.447 344.485 535.744 345.395 538.604 345.395C541.377 345.395 543.652 344.463 545.429 342.6C547.249 340.693 548.159 338.158 548.159 334.995C548.159 331.788 547.249 329.253 545.429 327.39C543.652 325.483 541.377 324.53 538.604 324.53ZM359.076 405.11V412.39H339.771V424.675H355.241V431.695H339.771V451H330.606V405.11H359.076ZM381.904 414.535C385.414 414.535 388.556 415.272 391.329 416.745C394.146 418.218 396.356 420.363 397.959 423.18C399.562 425.953 400.364 429.225 400.364 432.995C400.364 436.765 399.562 440.037 397.959 442.81C396.356 445.583 394.146 447.728 391.329 449.245C388.556 450.718 385.414 451.455 381.904 451.455C378.394 451.455 375.231 450.718 372.414 449.245C369.641 447.728 367.452 445.583 365.849 442.81C364.246 440.037 363.444 436.765 363.444 432.995C363.444 429.225 364.246 425.953 365.849 423.18C367.452 420.363 369.641 418.218 372.414 416.745C375.231 415.272 378.394 414.535 381.904 414.535ZM381.904 422.465C379.347 422.465 377.181 423.375 375.404 425.195C373.627 426.972 372.739 429.572 372.739 432.995C372.739 436.418 373.627 439.04 375.404 440.86C377.181 442.637 379.347 443.525 381.904 443.525C384.461 443.525 386.627 442.637 388.404 440.86C390.181 439.04 391.069 436.418 391.069 432.995C391.069 429.572 390.181 426.972 388.404 425.195C386.627 423.375 384.461 422.465 381.904 422.465ZM441.291 414.99V451H432.126V443.72C431.173 446.147 429.591 448.053 427.381 449.44C425.214 450.783 422.701 451.455 419.841 451.455C415.681 451.455 412.366 450.09 409.896 447.36C407.426 444.63 406.191 440.817 406.191 435.92V414.99H415.291V434.88C415.291 437.74 416.028 439.972 417.501 441.575C418.974 443.135 420.968 443.915 423.481 443.915C426.124 443.915 428.226 443.07 429.786 441.38C431.346 439.69 432.126 437.263 432.126 434.1V414.99H441.291ZM471.074 414.47C475.234 414.47 478.549 415.835 481.019 418.565C483.489 421.295 484.724 425.13 484.724 430.07V451H475.624V431.11C475.624 428.25 474.888 426.04 473.414 424.48C471.941 422.877 469.926 422.075 467.369 422.075C464.769 422.075 462.689 422.92 461.129 424.61C459.569 426.3 458.789 428.727 458.789 431.89V451H449.624V414.99H458.789V422.205C459.743 419.778 461.303 417.893 463.469 416.55C465.679 415.163 468.214 414.47 471.074 414.47ZM506.893 414.535C509.927 414.535 512.505 415.25 514.628 416.68C516.795 418.11 518.355 420.038 519.308 422.465V402.9H528.408V451H519.308V443.46C518.355 445.887 516.795 447.837 514.628 449.31C512.505 450.74 509.927 451.455 506.893 451.455C503.86 451.455 501.13 450.718 498.703 449.245C496.277 447.772 494.37 445.648 492.983 442.875C491.64 440.058 490.968 436.765 490.968 432.995C490.968 429.225 491.64 425.953 492.983 423.18C494.37 420.363 496.277 418.218 498.703 416.745C501.13 415.272 503.86 414.535 506.893 414.535ZM509.753 422.53C506.893 422.53 504.597 423.462 502.863 425.325C501.13 427.188 500.263 429.745 500.263 432.995C500.263 436.245 501.13 438.802 502.863 440.665C504.597 442.485 506.893 443.395 509.753 443.395C512.527 443.395 514.802 442.463 516.578 440.6C518.398 438.693 519.308 436.158 519.308 432.995C519.308 429.788 518.398 427.253 516.578 425.39C514.802 423.483 512.527 422.53 509.753 422.53Z" fill="#EF8A17"/>
</g>
<defs>
<clipPath id="clip0_202_14">
<rect width="647.636" height="632.174" fill="white"/>
</clipPath>
</defs>
</svg>
