<svg width="525" height="419" viewBox="0 0 525 419" fill="none" xmlns="http://www.w3.org/2000/svg">
<g clip-path="url(#clip0_203_2)">
<path d="M332.021 199.313L172.563 199.368C164.553 199.371 157.377 195.231 153.369 188.295C151.365 184.826 150.363 181.022 150.361 177.216C150.36 173.411 151.36 169.605 153.362 166.135L233.039 21.0862C237.043 14.1469 244.216 10.0028 252.226 10C260.237 9.99723 267.413 14.1364 271.421 21.073L351.21 166.085C353.208 169.544 354.208 173.345 354.209 177.148C354.208 180.951 353.209 184.757 351.207 188.227C347.204 195.165 340.031 199.31 332.021 199.313ZM152.366 177.213C152.366 180.677 169.961 173.213 171.784 176.368C175.43 182.678 165.275 197.37 172.563 197.368C172.563 197.368 345.833 193.54 349.475 187.227C351.295 184.071 352.205 180.608 352.204 177.146C352.203 173.684 351.291 170.223 349.467 167.067L269.679 22.0555C266.043 15.7633 259.515 11.9975 252.227 12C244.942 12.0025 152.366 173.749 152.366 177.213Z" fill="#EF8A17"/>
<path d="M298.756 167.324C339.072 167.324 371.756 134.641 371.756 94.3243C371.756 54.0075 339.072 21.3243 298.756 21.3243C258.439 21.3243 225.756 54.0075 225.756 94.3243C225.756 134.641 258.439 167.324 298.756 167.324Z" fill="#F9A826"/>
<path d="M298.769 139.074C302.471 139.074 305.471 136.073 305.471 132.372C305.471 128.67 302.471 125.669 298.769 125.669C295.067 125.669 292.066 128.67 292.066 132.372C292.066 136.073 295.067 139.074 298.769 139.074Z" fill="white"/>
<path d="M298.74 49.5743C298.124 53.6655 299.228 54.5216 299.234 72.1594C299.24 89.7972 302.9 113.445 298.762 113.447C294.625 113.448 293.112 64.6438 278.745 60.3244C261.855 55.2459 300.733 36.3303 298.74 49.5743Z" fill="white"/>
<path d="M200.779 131.595L194.184 145.53C202.157 139.813 214.611 134.884 224.521 132.245C215.287 127.784 203.988 120.593 197.238 113.473L201.031 128.197C156.557 119.139 124.62 85.0204 124.606 45.9378L123 45.3851C123.014 86.2079 154.51 122.346 200.779 131.595Z" fill="#F9A826"/>
<path d="M77.9489 262.29L69.5839 278.355V287H64.6139V278.355L56.2139 262.29H61.8839L67.1339 273.105L72.3839 262.29H77.9489ZM89.5525 267.365C91.4425 267.365 93.1342 267.762 94.6275 268.555C96.1442 269.348 97.3342 270.503 98.1975 272.02C99.0609 273.513 99.4925 275.275 99.4925 277.305C99.4925 279.335 99.0609 281.097 98.1975 282.59C97.3342 284.083 96.1442 285.238 94.6275 286.055C93.1342 286.848 91.4425 287.245 89.5525 287.245C87.6625 287.245 85.9592 286.848 84.4425 286.055C82.9492 285.238 81.7709 284.083 80.9075 282.59C80.0442 281.097 79.6125 279.335 79.6125 277.305C79.6125 275.275 80.0442 273.513 80.9075 272.02C81.7709 270.503 82.9492 269.348 84.4425 268.555C85.9592 267.762 87.6625 267.365 89.5525 267.365ZM89.5525 271.635C88.1759 271.635 87.0092 272.125 86.0525 273.105C85.0959 274.062 84.6175 275.462 84.6175 277.305C84.6175 279.148 85.0959 280.56 86.0525 281.54C87.0092 282.497 88.1759 282.975 89.5525 282.975C90.9292 282.975 92.0959 282.497 93.0525 281.54C94.0092 280.56 94.4875 279.148 94.4875 277.305C94.4875 275.462 94.0092 274.062 93.0525 273.105C92.0959 272.125 90.9292 271.635 89.5525 271.635ZM121.53 267.61V287H116.595V283.08C116.082 284.387 115.23 285.413 114.04 286.16C112.874 286.883 111.52 287.245 109.98 287.245C107.74 287.245 105.955 286.51 104.625 285.04C103.295 283.57 102.63 281.517 102.63 278.88V267.61H107.53V278.32C107.53 279.86 107.927 281.062 108.72 281.925C109.514 282.765 110.587 283.185 111.94 283.185C113.364 283.185 114.495 282.73 115.335 281.82C116.175 280.91 116.595 279.603 116.595 277.9V267.61H121.53ZM141.234 267.365C142.868 267.365 144.268 267.75 145.434 268.52C146.601 269.29 147.429 270.328 147.919 271.635V267.61H152.819V287H147.919V282.94C147.429 284.247 146.601 285.297 145.434 286.09C144.268 286.86 142.868 287.245 141.234 287.245C139.601 287.245 138.131 286.848 136.824 286.055C135.518 285.262 134.491 284.118 133.744 282.625C133.021 281.108 132.659 279.335 132.659 277.305C132.659 275.275 133.021 273.513 133.744 272.02C134.491 270.503 135.518 269.348 136.824 268.555C138.131 267.762 139.601 267.365 141.234 267.365ZM142.774 271.67C141.234 271.67 139.998 272.172 139.064 273.175C138.131 274.178 137.664 275.555 137.664 277.305C137.664 279.055 138.131 280.432 139.064 281.435C139.998 282.415 141.234 282.905 142.774 282.905C144.268 282.905 145.493 282.403 146.449 281.4C147.429 280.373 147.919 279.008 147.919 277.305C147.919 275.578 147.429 274.213 146.449 273.21C145.493 272.183 144.268 271.67 142.774 271.67ZM162.227 271.32C162.95 270.083 163.907 269.115 165.097 268.415C166.287 267.692 167.617 267.33 169.087 267.33V272.615H167.652C164.035 272.615 162.227 274.295 162.227 277.655V287H157.292V267.61H162.227V271.32ZM190.053 276.57C190.053 277.06 189.995 277.62 189.878 278.25H175.668C175.738 279.977 176.205 281.248 177.068 282.065C177.931 282.882 179.005 283.29 180.288 283.29C181.431 283.29 182.376 283.01 183.123 282.45C183.893 281.89 184.383 281.132 184.593 280.175H189.808C189.551 281.528 189.003 282.742 188.163 283.815C187.323 284.888 186.238 285.728 184.908 286.335C183.601 286.942 182.143 287.245 180.533 287.245C178.643 287.245 176.963 286.848 175.493 286.055C174.023 285.238 172.88 284.083 172.063 282.59C171.246 281.097 170.838 279.335 170.838 277.305C170.838 275.275 171.246 273.513 172.063 272.02C172.88 270.503 174.023 269.348 175.493 268.555C176.963 267.762 178.643 267.365 180.533 267.365C182.446 267.365 184.115 267.762 185.538 268.555C186.985 269.348 188.093 270.445 188.863 271.845C189.656 273.222 190.053 274.797 190.053 276.57ZM185.083 276.08C185.153 274.493 184.733 273.292 183.823 272.475C182.936 271.658 181.84 271.25 180.533 271.25C179.203 271.25 178.083 271.658 177.173 272.475C176.263 273.292 175.761 274.493 175.668 276.08H185.083ZM212.728 267.33C214.968 267.33 216.753 268.065 218.083 269.535C219.413 271.005 220.078 273.07 220.078 275.73V287H215.178V276.29C215.178 274.75 214.782 273.56 213.988 272.72C213.195 271.857 212.11 271.425 210.733 271.425C209.333 271.425 208.213 271.88 207.373 272.79C206.533 273.7 206.113 275.007 206.113 276.71V287H201.178V267.61H206.113V271.495C206.627 270.188 207.467 269.173 208.633 268.45C209.823 267.703 211.188 267.33 212.728 267.33ZM233.381 267.365C235.271 267.365 236.962 267.762 238.456 268.555C239.972 269.348 241.162 270.503 242.026 272.02C242.889 273.513 243.321 275.275 243.321 277.305C243.321 279.335 242.889 281.097 242.026 282.59C241.162 284.083 239.972 285.238 238.456 286.055C236.962 286.848 235.271 287.245 233.381 287.245C231.491 287.245 229.787 286.848 228.271 286.055C226.777 285.238 225.599 284.083 224.736 282.59C223.872 281.097 223.441 279.335 223.441 277.305C223.441 275.275 223.872 273.513 224.736 272.02C225.599 270.503 226.777 269.348 228.271 268.555C229.787 267.762 231.491 267.365 233.381 267.365ZM233.381 271.635C232.004 271.635 230.837 272.125 229.881 273.105C228.924 274.062 228.446 275.462 228.446 277.305C228.446 279.148 228.924 280.56 229.881 281.54C230.837 282.497 232.004 282.975 233.381 282.975C234.757 282.975 235.924 282.497 236.881 281.54C237.837 280.56 238.316 279.148 238.316 277.305C238.316 275.462 237.837 274.062 236.881 273.105C235.924 272.125 234.757 271.635 233.381 271.635ZM257.168 282.765V287H254.578C252.408 287 250.74 286.475 249.573 285.425C248.43 284.375 247.858 282.625 247.858 280.175V271.775H245.163V267.61H247.858V262.815H252.793V267.61H257.133V271.775H252.793V280.245C252.793 281.178 252.98 281.832 253.353 282.205C253.727 282.578 254.357 282.765 255.243 282.765H257.168ZM275.937 267.365C277.57 267.365 278.97 267.75 280.137 268.52C281.303 269.29 282.132 270.328 282.622 271.635V267.61H287.522V287H282.622V282.94C282.132 284.247 281.303 285.297 280.137 286.09C278.97 286.86 277.57 287.245 275.937 287.245C274.303 287.245 272.833 286.848 271.527 286.055C270.22 285.262 269.193 284.118 268.447 282.625C267.723 281.108 267.362 279.335 267.362 277.305C267.362 275.275 267.723 273.513 268.447 272.02C269.193 270.503 270.22 269.348 271.527 268.555C272.833 267.762 274.303 267.365 275.937 267.365ZM277.477 271.67C275.937 271.67 274.7 272.172 273.767 273.175C272.833 274.178 272.367 275.555 272.367 277.305C272.367 279.055 272.833 280.432 273.767 281.435C274.7 282.415 275.937 282.905 277.477 282.905C278.97 282.905 280.195 282.403 281.152 281.4C282.132 280.373 282.622 279.008 282.622 277.305C282.622 275.578 282.132 274.213 281.152 273.21C280.195 272.183 278.97 271.67 277.477 271.67ZM310.544 267.61V287H305.609V283.08C305.096 284.387 304.244 285.413 303.054 286.16C301.887 286.883 300.534 287.245 298.994 287.245C296.754 287.245 294.969 286.51 293.639 285.04C292.309 283.57 291.644 281.517 291.644 278.88V267.61H296.544V278.32C296.544 279.86 296.941 281.062 297.734 281.925C298.527 282.765 299.601 283.185 300.954 283.185C302.377 283.185 303.509 282.73 304.349 281.82C305.189 280.91 305.609 279.603 305.609 277.9V267.61H310.544ZM325.391 282.765V287H322.801C320.631 287 318.963 286.475 317.796 285.425C316.653 284.375 316.081 282.625 316.081 280.175V271.775H313.386V267.61H316.081V262.815H321.016V267.61H325.356V271.775H321.016V280.245C321.016 281.178 321.203 281.832 321.576 282.205C321.949 282.578 322.579 282.765 323.466 282.765H325.391ZM340.492 267.33C342.732 267.33 344.517 268.065 345.847 269.535C347.177 271.005 347.842 273.07 347.842 275.73V287H342.942V276.29C342.942 274.75 342.545 273.56 341.752 272.72C340.959 271.857 339.874 271.425 338.497 271.425C337.097 271.425 335.977 271.88 335.137 272.79C334.297 273.7 333.877 275.007 333.877 276.71V287H328.942V261.1H333.877V271.495C334.39 270.188 335.23 269.173 336.397 268.45C337.587 267.703 338.952 267.33 340.492 267.33ZM361.144 267.365C363.034 267.365 364.726 267.762 366.219 268.555C367.736 269.348 368.926 270.503 369.789 272.02C370.653 273.513 371.084 275.275 371.084 277.305C371.084 279.335 370.653 281.097 369.789 282.59C368.926 284.083 367.736 285.238 366.219 286.055C364.726 286.848 363.034 287.245 361.144 287.245C359.254 287.245 357.551 286.848 356.034 286.055C354.541 285.238 353.363 284.083 352.499 282.59C351.636 281.097 351.204 279.335 351.204 277.305C351.204 275.275 351.636 273.513 352.499 272.02C353.363 270.503 354.541 269.348 356.034 268.555C357.551 267.762 359.254 267.365 361.144 267.365ZM361.144 271.635C359.768 271.635 358.601 272.125 357.644 273.105C356.688 274.062 356.209 275.462 356.209 277.305C356.209 279.148 356.688 280.56 357.644 281.54C358.601 282.497 359.768 282.975 361.144 282.975C362.521 282.975 363.688 282.497 364.644 281.54C365.601 280.56 366.079 279.148 366.079 277.305C366.079 275.462 365.601 274.062 364.644 273.105C363.688 272.125 362.521 271.635 361.144 271.635ZM379.507 271.32C380.23 270.083 381.187 269.115 382.377 268.415C383.567 267.692 384.897 267.33 386.367 267.33V272.615H384.932C381.315 272.615 379.507 274.295 379.507 277.655V287H374.572V267.61H379.507V271.32ZM388.538 262.045C388.538 261.252 388.818 260.61 389.378 260.12C389.938 259.607 390.673 259.35 391.583 259.35C392.493 259.35 393.228 259.607 393.788 260.12C394.348 260.61 394.628 261.252 394.628 262.045C394.628 262.815 394.348 263.457 393.788 263.97C393.228 264.46 392.493 264.705 391.583 264.705C390.673 264.705 389.938 264.46 389.378 263.97C388.818 263.457 388.538 262.815 388.538 262.045ZM394.033 267.61V287H389.098V267.61H394.033ZM405.183 267.365C407.539 267.365 409.429 267.96 410.853 269.15C412.276 270.34 413.163 271.927 413.513 273.91H408.893C408.706 272.977 408.286 272.23 407.633 271.67C406.979 271.11 406.128 270.83 405.078 270.83C404.238 270.83 403.584 271.028 403.118 271.425C402.651 271.822 402.418 272.358 402.418 273.035C402.418 273.572 402.604 274.003 402.978 274.33C403.351 274.657 403.818 274.913 404.378 275.1C404.938 275.287 405.743 275.508 406.793 275.765C408.263 276.092 409.453 276.442 410.363 276.815C411.296 277.165 412.089 277.737 412.743 278.53C413.419 279.3 413.758 280.35 413.758 281.68C413.758 283.337 413.104 284.678 411.798 285.705C410.514 286.732 408.776 287.245 406.583 287.245C404.063 287.245 402.044 286.685 400.528 285.565C399.011 284.422 398.089 282.8 397.763 280.7H402.488C402.604 281.657 403.024 282.415 403.748 282.975C404.471 283.512 405.416 283.78 406.583 283.78C407.423 283.78 408.064 283.582 408.508 283.185C408.951 282.765 409.173 282.228 409.173 281.575C409.173 281.015 408.974 280.56 408.578 280.21C408.204 279.86 407.726 279.592 407.143 279.405C406.583 279.218 405.778 278.997 404.728 278.74C403.281 278.413 402.103 278.087 401.193 277.76C400.306 277.41 399.536 276.862 398.883 276.115C398.253 275.368 397.938 274.342 397.938 273.035C397.938 271.355 398.579 269.99 399.863 268.94C401.146 267.89 402.919 267.365 405.183 267.365ZM435.668 276.57C435.668 277.06 435.61 277.62 435.493 278.25H421.283C421.353 279.977 421.82 281.248 422.683 282.065C423.547 282.882 424.62 283.29 425.903 283.29C427.047 283.29 427.992 283.01 428.738 282.45C429.508 281.89 429.998 281.132 430.208 280.175H435.423C435.167 281.528 434.618 282.742 433.778 283.815C432.938 284.888 431.853 285.728 430.523 286.335C429.217 286.942 427.758 287.245 426.148 287.245C424.258 287.245 422.578 286.848 421.108 286.055C419.638 285.238 418.495 284.083 417.678 282.59C416.862 281.097 416.453 279.335 416.453 277.305C416.453 275.275 416.862 273.513 417.678 272.02C418.495 270.503 419.638 269.348 421.108 268.555C422.578 267.762 424.258 267.365 426.148 267.365C428.062 267.365 429.73 267.762 431.153 268.555C432.6 269.348 433.708 270.445 434.478 271.845C435.272 273.222 435.668 274.797 435.668 276.57ZM430.698 276.08C430.768 274.493 430.348 273.292 429.438 272.475C428.552 271.658 427.455 271.25 426.148 271.25C424.818 271.25 423.698 271.658 422.788 272.475C421.878 273.292 421.377 274.493 421.283 276.08H430.698ZM446.767 267.365C448.4 267.365 449.788 267.75 450.932 268.52C452.098 269.29 452.938 270.328 453.452 271.635V261.1H458.352V287H453.452V282.94C452.938 284.247 452.098 285.297 450.932 286.09C449.788 286.86 448.4 287.245 446.767 287.245C445.133 287.245 443.663 286.848 442.357 286.055C441.05 285.262 440.023 284.118 439.277 282.625C438.553 281.108 438.192 279.335 438.192 277.305C438.192 275.275 438.553 273.513 439.277 272.02C440.023 270.503 441.05 269.348 442.357 268.555C443.663 267.762 445.133 267.365 446.767 267.365ZM448.307 271.67C446.767 271.67 445.53 272.172 444.597 273.175C443.663 274.178 443.197 275.555 443.197 277.305C443.197 279.055 443.663 280.432 444.597 281.435C445.53 282.415 446.767 282.905 448.307 282.905C449.8 282.905 451.025 282.403 451.982 281.4C452.962 280.373 453.452 279.008 453.452 277.305C453.452 275.578 452.962 274.213 451.982 273.21C451.025 272.183 449.8 271.67 448.307 271.67ZM123.201 335.765V340H120.611C118.441 340 116.773 339.475 115.606 338.425C114.463 337.375 113.891 335.625 113.891 333.175V324.775H111.196V320.61H113.891V315.815H118.826V320.61H123.166V324.775H118.826V333.245C118.826 334.178 119.013 334.832 119.386 335.205C119.759 335.578 120.389 335.765 121.276 335.765H123.201ZM135.712 320.365C137.602 320.365 139.294 320.762 140.787 321.555C142.304 322.348 143.494 323.503 144.357 325.02C145.221 326.513 145.652 328.275 145.652 330.305C145.652 332.335 145.221 334.097 144.357 335.59C143.494 337.083 142.304 338.238 140.787 339.055C139.294 339.848 137.602 340.245 135.712 340.245C133.822 340.245 132.119 339.848 130.602 339.055C129.109 338.238 127.931 337.083 127.067 335.59C126.204 334.097 125.772 332.335 125.772 330.305C125.772 328.275 126.204 326.513 127.067 325.02C127.931 323.503 129.109 322.348 130.602 321.555C132.119 320.762 133.822 320.365 135.712 320.365ZM135.712 324.635C134.336 324.635 133.169 325.125 132.212 326.105C131.256 327.062 130.777 328.462 130.777 330.305C130.777 332.148 131.256 333.56 132.212 334.54C133.169 335.497 134.336 335.975 135.712 335.975C137.089 335.975 138.256 335.497 139.212 334.54C140.169 333.56 140.647 332.148 140.647 330.305C140.647 328.462 140.169 327.062 139.212 326.105C138.256 325.125 137.089 324.635 135.712 324.635ZM165.197 335.065L170.097 320.61H175.347L168.172 340H162.152L154.977 320.61H160.262L165.197 335.065ZM177.53 315.045C177.53 314.252 177.81 313.61 178.37 313.12C178.93 312.607 179.665 312.35 180.575 312.35C181.485 312.35 182.22 312.607 182.78 313.12C183.34 313.61 183.62 314.252 183.62 315.045C183.62 315.815 183.34 316.457 182.78 316.97C182.22 317.46 181.485 317.705 180.575 317.705C179.665 317.705 178.93 317.46 178.37 316.97C177.81 316.457 177.53 315.815 177.53 315.045ZM183.025 320.61V340H178.09V320.61H183.025ZM205.725 329.57C205.725 330.06 205.666 330.62 205.55 331.25H191.34C191.41 332.977 191.876 334.248 192.74 335.065C193.603 335.882 194.676 336.29 195.96 336.29C197.103 336.29 198.048 336.01 198.795 335.45C199.565 334.89 200.055 334.132 200.265 333.175H205.48C205.223 334.528 204.675 335.742 203.835 336.815C202.995 337.888 201.91 338.728 200.58 339.335C199.273 339.942 197.815 340.245 196.205 340.245C194.315 340.245 192.635 339.848 191.165 339.055C189.695 338.238 188.551 337.083 187.735 335.59C186.918 334.097 186.51 332.335 186.51 330.305C186.51 328.275 186.918 326.513 187.735 325.02C188.551 323.503 189.695 322.348 191.165 321.555C192.635 320.762 194.315 320.365 196.205 320.365C198.118 320.365 199.786 320.762 201.21 321.555C202.656 322.348 203.765 323.445 204.535 324.845C205.328 326.222 205.725 327.797 205.725 329.57ZM200.755 329.08C200.825 327.493 200.405 326.292 199.495 325.475C198.608 324.658 197.511 324.25 196.205 324.25C194.875 324.25 193.755 324.658 192.845 325.475C191.935 326.292 191.433 327.493 191.34 329.08H200.755ZM236.983 320.61L231.768 340H226.308L222.143 325.895L217.873 340H212.413L207.233 320.61H212.168L215.318 335.59L219.623 320.61H224.838L229.178 335.59L232.363 320.61H236.983ZM257.425 335.765V340H254.835C252.665 340 250.996 339.475 249.83 338.425C248.686 337.375 248.115 335.625 248.115 333.175V324.775H245.42V320.61H248.115V315.815H253.05V320.61H257.39V324.775H253.05V333.245C253.05 334.178 253.236 334.832 253.61 335.205C253.983 335.578 254.613 335.765 255.5 335.765H257.425ZM272.526 320.33C274.766 320.33 276.551 321.065 277.881 322.535C279.211 324.005 279.876 326.07 279.876 328.73V340H274.976V329.29C274.976 327.75 274.579 326.56 273.786 325.72C272.993 324.857 271.908 324.425 270.531 324.425C269.131 324.425 268.011 324.88 267.171 325.79C266.331 326.7 265.911 328.007 265.911 329.71V340H260.976V314.1H265.911V324.495C266.424 323.188 267.264 322.173 268.431 321.45C269.621 320.703 270.986 320.33 272.526 320.33ZM302.453 329.57C302.453 330.06 302.395 330.62 302.278 331.25H288.068C288.138 332.977 288.605 334.248 289.468 335.065C290.331 335.882 291.405 336.29 292.688 336.29C293.831 336.29 294.776 336.01 295.523 335.45C296.293 334.89 296.783 334.132 296.993 333.175H302.208C301.951 334.528 301.403 335.742 300.563 336.815C299.723 337.888 298.638 338.728 297.308 339.335C296.001 339.942 294.543 340.245 292.933 340.245C291.043 340.245 289.363 339.848 287.893 339.055C286.423 338.238 285.28 337.083 284.463 335.59C283.646 334.097 283.238 332.335 283.238 330.305C283.238 328.275 283.646 326.513 284.463 325.02C285.28 323.503 286.423 322.348 287.893 321.555C289.363 320.762 291.043 320.365 292.933 320.365C294.846 320.365 296.515 320.762 297.938 321.555C299.385 322.348 300.493 323.445 301.263 324.845C302.056 326.222 302.453 327.797 302.453 329.57ZM297.483 329.08C297.553 327.493 297.133 326.292 296.223 325.475C295.336 324.658 294.24 324.25 292.933 324.25C291.603 324.25 290.483 324.658 289.573 325.475C288.663 326.292 288.161 327.493 288.068 329.08H297.483ZM317.043 315.29L323.658 334.855L330.308 315.29H335.593L326.843 340H320.508L311.758 315.29H317.043ZM345.851 320.365C347.484 320.365 348.884 320.75 350.051 321.52C351.218 322.29 352.046 323.328 352.536 324.635V320.61H357.436V340H352.536V335.94C352.046 337.247 351.218 338.297 350.051 339.09C348.884 339.86 347.484 340.245 345.851 340.245C344.218 340.245 342.748 339.848 341.441 339.055C340.134 338.262 339.108 337.118 338.361 335.625C337.638 334.108 337.276 332.335 337.276 330.305C337.276 328.275 337.638 326.513 338.361 325.02C339.108 323.503 340.134 322.348 341.441 321.555C342.748 320.762 344.218 320.365 345.851 320.365ZM347.391 324.67C345.851 324.67 344.614 325.172 343.681 326.175C342.748 327.178 342.281 328.555 342.281 330.305C342.281 332.055 342.748 333.432 343.681 334.435C344.614 335.415 345.851 335.905 347.391 335.905C348.884 335.905 350.109 335.403 351.066 334.4C352.046 333.373 352.536 332.008 352.536 330.305C352.536 328.578 352.046 327.213 351.066 326.21C350.109 325.183 348.884 324.67 347.391 324.67ZM380.458 320.61V340H375.523V336.08C375.01 337.387 374.158 338.413 372.968 339.16C371.802 339.883 370.448 340.245 368.908 340.245C366.668 340.245 364.883 339.51 363.553 338.04C362.223 336.57 361.558 334.517 361.558 331.88V320.61H366.458V331.32C366.458 332.86 366.855 334.062 367.648 334.925C368.442 335.765 369.515 336.185 370.868 336.185C372.292 336.185 373.423 335.73 374.263 334.82C375.103 333.91 375.523 332.603 375.523 330.9V320.61H380.458ZM389.881 314.1V340H384.946V314.1H389.881ZM404.705 335.765V340H402.115C399.945 340 398.277 339.475 397.11 338.425C395.967 337.375 395.395 335.625 395.395 333.175V324.775H392.7V320.61H395.395V315.815H400.33V320.61H404.67V324.775H400.33V333.245C400.33 334.178 400.517 334.832 400.89 335.205C401.263 335.578 401.893 335.765 402.78 335.765H404.705ZM412.351 334.855V340H407.031V334.855H412.351Z" fill="#EF8A17"/>
</g>
<defs>
<clipPath id="clip0_203_2">
<rect width="524.67" height="418.271" fill="white"/>
</clipPath>
</defs>
</svg>
